<mxfile host="app.diagrams.net" agent="Mozilla/5.0 (Windows NT 10.0; Win64; x64) AppleWebKit/537.36 (KHTML, like Gecko) Chrome/135.0.0.0 Safari/537.36" version="26.2.14">
  <diagram name="Seite-1" id="eSZgIjPLnw5AIDb-3A-l">
    <mxGraphModel dx="1042" dy="1696" grid="1" gridSize="10" guides="1" tooltips="1" connect="1" arrows="1" fold="1" page="1" pageScale="1" pageWidth="827" pageHeight="1169" math="0" shadow="0">
      <root>
        <mxCell id="0" />
        <mxCell id="1" parent="0" />
        <mxCell id="DOtsmHwbhiuuyyJbtOth-2" value="Trustworthy AIaaS Webserver components (image classification)" style="shape=umlFrame;whiteSpace=wrap;html=1;pointerEvents=0;recursiveResize=0;container=1;collapsible=0;width=160;height=50;" parent="1" vertex="1">
          <mxGeometry x="110" y="-110" width="780" height="710" as="geometry" />
        </mxCell>
        <mxCell id="DOtsmHwbhiuuyyJbtOth-50" value="&lt;div&gt;&lt;br&gt;&lt;/div&gt;" style="edgeStyle=orthogonalEdgeStyle;rounded=0;orthogonalLoop=1;jettySize=auto;html=1;entryX=0.056;entryY=0;entryDx=0;entryDy=0;entryPerimeter=0;" parent="DOtsmHwbhiuuyyJbtOth-2" source="DOtsmHwbhiuuyyJbtOth-3" target="DOtsmHwbhiuuyyJbtOth-4" edge="1">
          <mxGeometry x="0.1579" relative="1" as="geometry">
            <mxPoint x="240" y="160" as="targetPoint" />
            <Array as="points">
              <mxPoint x="240" y="70" />
            </Array>
            <mxPoint as="offset" />
          </mxGeometry>
        </mxCell>
        <mxCell id="DOtsmHwbhiuuyyJbtOth-52" value="Bild Upload + Klassifikation anfordern" style="edgeLabel;html=1;align=center;verticalAlign=middle;resizable=0;points=[];" parent="DOtsmHwbhiuuyyJbtOth-50" vertex="1" connectable="0">
          <mxGeometry x="0.1537" y="2" relative="1" as="geometry">
            <mxPoint y="12" as="offset" />
          </mxGeometry>
        </mxCell>
        <mxCell id="DOtsmHwbhiuuyyJbtOth-3" value="Benutzer" style="shape=actor;whiteSpace=wrap;html=1;" parent="DOtsmHwbhiuuyyJbtOth-2" vertex="1">
          <mxGeometry x="300" y="30" width="40" height="60" as="geometry" />
        </mxCell>
        <mxCell id="DOtsmHwbhiuuyyJbtOth-11" value="" style="edgeStyle=orthogonalEdgeStyle;rounded=0;orthogonalLoop=1;jettySize=auto;html=1;" parent="DOtsmHwbhiuuyyJbtOth-2" source="DOtsmHwbhiuuyyJbtOth-4" target="DOtsmHwbhiuuyyJbtOth-9" edge="1">
          <mxGeometry relative="1" as="geometry">
            <Array as="points">
              <mxPoint x="260" y="300" />
              <mxPoint x="260" y="300" />
            </Array>
          </mxGeometry>
        </mxCell>
        <mxCell id="DOtsmHwbhiuuyyJbtOth-27" value="Bild Weitergabe" style="edgeLabel;html=1;align=center;verticalAlign=middle;resizable=0;points=[];" parent="DOtsmHwbhiuuyyJbtOth-11" vertex="1" connectable="0">
          <mxGeometry x="-0.0889" y="-2" relative="1" as="geometry">
            <mxPoint as="offset" />
          </mxGeometry>
        </mxCell>
        <mxCell id="DOtsmHwbhiuuyyJbtOth-55" style="edgeStyle=orthogonalEdgeStyle;rounded=0;orthogonalLoop=1;jettySize=auto;html=1;exitX=0.75;exitY=1;exitDx=0;exitDy=0;entryX=0.75;entryY=0;entryDx=0;entryDy=0;" parent="DOtsmHwbhiuuyyJbtOth-2" source="DOtsmHwbhiuuyyJbtOth-4" target="DOtsmHwbhiuuyyJbtOth-9" edge="1">
          <mxGeometry relative="1" as="geometry" />
        </mxCell>
        <mxCell id="DOtsmHwbhiuuyyJbtOth-56" value="Feedback senden" style="edgeLabel;html=1;align=center;verticalAlign=middle;resizable=0;points=[];" parent="DOtsmHwbhiuuyyJbtOth-55" vertex="1" connectable="0">
          <mxGeometry x="-0.115" y="2" relative="1" as="geometry">
            <mxPoint as="offset" />
          </mxGeometry>
        </mxCell>
        <mxCell id="DOtsmHwbhiuuyyJbtOth-4" value="«HTML/CSS/Bootstrap»&lt;br&gt;&lt;b&gt;Web-Frontend&lt;/b&gt;" style="html=1;dropTarget=0;whiteSpace=wrap;" parent="DOtsmHwbhiuuyyJbtOth-2" vertex="1">
          <mxGeometry x="230" y="180" width="180" height="90" as="geometry" />
        </mxCell>
        <mxCell id="DOtsmHwbhiuuyyJbtOth-5" value="" style="shape=module;jettyWidth=8;jettyHeight=4;" parent="DOtsmHwbhiuuyyJbtOth-4" vertex="1">
          <mxGeometry x="1" width="20" height="20" relative="1" as="geometry">
            <mxPoint x="-27" y="7" as="offset" />
          </mxGeometry>
        </mxCell>
        <mxCell id="DOtsmHwbhiuuyyJbtOth-14" value="" style="edgeStyle=orthogonalEdgeStyle;rounded=0;orthogonalLoop=1;jettySize=auto;html=1;" parent="DOtsmHwbhiuuyyJbtOth-2" source="DOtsmHwbhiuuyyJbtOth-9" target="DOtsmHwbhiuuyyJbtOth-12" edge="1">
          <mxGeometry relative="1" as="geometry" />
        </mxCell>
        <mxCell id="DOtsmHwbhiuuyyJbtOth-28" value="Klassifikation" style="edgeLabel;html=1;align=center;verticalAlign=middle;resizable=0;points=[];" parent="DOtsmHwbhiuuyyJbtOth-14" vertex="1" connectable="0">
          <mxGeometry x="-0.0603" y="-1" relative="1" as="geometry">
            <mxPoint as="offset" />
          </mxGeometry>
        </mxCell>
        <mxCell id="DOtsmHwbhiuuyyJbtOth-35" value="Feedback-Speicherung" style="edgeStyle=orthogonalEdgeStyle;rounded=0;orthogonalLoop=1;jettySize=auto;html=1;entryX=0;entryY=0.5;entryDx=0;entryDy=0;" parent="DOtsmHwbhiuuyyJbtOth-2" source="DOtsmHwbhiuuyyJbtOth-9" target="DOtsmHwbhiuuyyJbtOth-33" edge="1">
          <mxGeometry x="-0.0667" y="15" relative="1" as="geometry">
            <mxPoint as="offset" />
          </mxGeometry>
        </mxCell>
        <mxCell id="DOtsmHwbhiuuyyJbtOth-65" style="edgeStyle=orthogonalEdgeStyle;rounded=0;orthogonalLoop=1;jettySize=auto;html=1;exitX=0;exitY=0.25;exitDx=0;exitDy=0;entryX=0;entryY=0.5;entryDx=0;entryDy=0;" parent="DOtsmHwbhiuuyyJbtOth-2" source="DOtsmHwbhiuuyyJbtOth-9" target="DOtsmHwbhiuuyyJbtOth-4" edge="1">
          <mxGeometry relative="1" as="geometry">
            <Array as="points">
              <mxPoint x="150" y="373" />
              <mxPoint x="150" y="225" />
            </Array>
          </mxGeometry>
        </mxCell>
        <mxCell id="DOtsmHwbhiuuyyJbtOth-66" value="Output (Klassifikation)" style="edgeLabel;html=1;align=center;verticalAlign=middle;resizable=0;points=[];" parent="DOtsmHwbhiuuyyJbtOth-65" vertex="1" connectable="0">
          <mxGeometry x="0.2673" y="-4" relative="1" as="geometry">
            <mxPoint y="32" as="offset" />
          </mxGeometry>
        </mxCell>
        <mxCell id="DOtsmHwbhiuuyyJbtOth-9" value="«Flask»&lt;br&gt;&lt;b&gt;Webserver / API&lt;/b&gt;" style="html=1;dropTarget=0;whiteSpace=wrap;" parent="DOtsmHwbhiuuyyJbtOth-2" vertex="1">
          <mxGeometry x="230" y="350" width="180" height="90" as="geometry" />
        </mxCell>
        <mxCell id="DOtsmHwbhiuuyyJbtOth-10" value="" style="shape=module;jettyWidth=8;jettyHeight=4;" parent="DOtsmHwbhiuuyyJbtOth-9" vertex="1">
          <mxGeometry x="1" width="20" height="20" relative="1" as="geometry">
            <mxPoint x="-27" y="7" as="offset" />
          </mxGeometry>
        </mxCell>
        <mxCell id="DOtsmHwbhiuuyyJbtOth-59" style="edgeStyle=orthogonalEdgeStyle;rounded=0;orthogonalLoop=1;jettySize=auto;html=1;entryX=0;entryY=0.5;entryDx=0;entryDy=0;" parent="DOtsmHwbhiuuyyJbtOth-2" source="DOtsmHwbhiuuyyJbtOth-12" target="DOtsmHwbhiuuyyJbtOth-9" edge="1">
          <mxGeometry relative="1" as="geometry">
            <Array as="points">
              <mxPoint x="60" y="565" />
              <mxPoint x="60" y="395" />
            </Array>
          </mxGeometry>
        </mxCell>
        <mxCell id="DOtsmHwbhiuuyyJbtOth-60" value="Output (Klassifikation)" style="edgeLabel;html=1;align=center;verticalAlign=middle;resizable=0;points=[];" parent="DOtsmHwbhiuuyyJbtOth-59" vertex="1" connectable="0">
          <mxGeometry x="-0.2703" y="-1" relative="1" as="geometry">
            <mxPoint as="offset" />
          </mxGeometry>
        </mxCell>
        <mxCell id="DOtsmHwbhiuuyyJbtOth-12" value="«Pytorch/ Torchvision»&lt;br&gt;&lt;b&gt;Inferenz - ML&lt;/b&gt;" style="html=1;dropTarget=0;whiteSpace=wrap;" parent="DOtsmHwbhiuuyyJbtOth-2" vertex="1">
          <mxGeometry x="90" y="520" width="180" height="90" as="geometry" />
        </mxCell>
        <mxCell id="DOtsmHwbhiuuyyJbtOth-13" value="" style="shape=module;jettyWidth=8;jettyHeight=4;" parent="DOtsmHwbhiuuyyJbtOth-12" vertex="1">
          <mxGeometry x="1" width="20" height="20" relative="1" as="geometry">
            <mxPoint x="-27" y="7" as="offset" />
          </mxGeometry>
        </mxCell>
        <mxCell id="DOtsmHwbhiuuyyJbtOth-57" style="edgeStyle=orthogonalEdgeStyle;rounded=0;orthogonalLoop=1;jettySize=auto;html=1;entryX=1;entryY=0.5;entryDx=0;entryDy=0;" parent="DOtsmHwbhiuuyyJbtOth-2" source="DOtsmHwbhiuuyyJbtOth-33" target="DOtsmHwbhiuuyyJbtOth-37" edge="1">
          <mxGeometry relative="1" as="geometry" />
        </mxCell>
        <mxCell id="DOtsmHwbhiuuyyJbtOth-58" value="Retraining" style="edgeLabel;html=1;align=center;verticalAlign=middle;resizable=0;points=[];" parent="DOtsmHwbhiuuyyJbtOth-57" vertex="1" connectable="0">
          <mxGeometry x="-0.2223" y="-3" relative="1" as="geometry">
            <mxPoint as="offset" />
          </mxGeometry>
        </mxCell>
        <mxCell id="DOtsmHwbhiuuyyJbtOth-33" value="&lt;b&gt;Datenbank&lt;/b&gt;" style="html=1;dropTarget=0;whiteSpace=wrap;" parent="DOtsmHwbhiuuyyJbtOth-2" vertex="1">
          <mxGeometry x="560" y="350" width="180" height="90" as="geometry" />
        </mxCell>
        <mxCell id="DOtsmHwbhiuuyyJbtOth-34" value="" style="shape=module;jettyWidth=8;jettyHeight=4;" parent="DOtsmHwbhiuuyyJbtOth-33" vertex="1">
          <mxGeometry x="1" width="20" height="20" relative="1" as="geometry">
            <mxPoint x="-27" y="7" as="offset" />
          </mxGeometry>
        </mxCell>
        <mxCell id="DOtsmHwbhiuuyyJbtOth-61" style="edgeStyle=orthogonalEdgeStyle;rounded=0;orthogonalLoop=1;jettySize=auto;html=1;entryX=1;entryY=0.5;entryDx=0;entryDy=0;" parent="DOtsmHwbhiuuyyJbtOth-2" source="DOtsmHwbhiuuyyJbtOth-37" target="DOtsmHwbhiuuyyJbtOth-12" edge="1">
          <mxGeometry relative="1" as="geometry" />
        </mxCell>
        <mxCell id="DOtsmHwbhiuuyyJbtOth-62" value="aktualisiertes Modell" style="edgeLabel;html=1;align=center;verticalAlign=middle;resizable=0;points=[];" parent="DOtsmHwbhiuuyyJbtOth-61" vertex="1" connectable="0">
          <mxGeometry x="-0.0073" y="-1" relative="1" as="geometry">
            <mxPoint as="offset" />
          </mxGeometry>
        </mxCell>
        <mxCell id="DOtsmHwbhiuuyyJbtOth-37" value="«Pytorch / Torchvision»&lt;br&gt;&lt;b&gt;Training - ML&lt;/b&gt;" style="html=1;dropTarget=0;whiteSpace=wrap;" parent="DOtsmHwbhiuuyyJbtOth-2" vertex="1">
          <mxGeometry x="400" y="520" width="180" height="90" as="geometry" />
        </mxCell>
        <mxCell id="DOtsmHwbhiuuyyJbtOth-38" value="" style="shape=module;jettyWidth=8;jettyHeight=4;" parent="DOtsmHwbhiuuyyJbtOth-37" vertex="1">
          <mxGeometry x="1" width="20" height="20" relative="1" as="geometry">
            <mxPoint x="-27" y="7" as="offset" />
          </mxGeometry>
        </mxCell>
        <mxCell id="DOtsmHwbhiuuyyJbtOth-53" style="edgeStyle=orthogonalEdgeStyle;rounded=0;orthogonalLoop=1;jettySize=auto;html=1;entryX=0.944;entryY=0;entryDx=0;entryDy=0;entryPerimeter=0;" parent="DOtsmHwbhiuuyyJbtOth-2" source="DOtsmHwbhiuuyyJbtOth-3" target="DOtsmHwbhiuuyyJbtOth-4" edge="1">
          <mxGeometry relative="1" as="geometry">
            <Array as="points">
              <mxPoint x="400" y="70" />
            </Array>
          </mxGeometry>
        </mxCell>
        <mxCell id="DOtsmHwbhiuuyyJbtOth-54" value="Feedback für Output" style="edgeLabel;html=1;align=center;verticalAlign=middle;resizable=0;points=[];" parent="DOtsmHwbhiuuyyJbtOth-53" vertex="1" connectable="0">
          <mxGeometry x="0.1427" y="-1" relative="1" as="geometry">
            <mxPoint y="13" as="offset" />
          </mxGeometry>
        </mxCell>
      </root>
    </mxGraphModel>
  </diagram>
</mxfile>
